<mxfile host="app.diagrams.net" modified="2023-09-14T13:54:19.663Z" agent="Mozilla/5.0 (Windows NT 10.0; Win64; x64) AppleWebKit/537.36 (KHTML, like Gecko) Chrome/116.0.0.0 Safari/537.36 Edg/116.0.1938.76" etag="3hrQVvesvDXdQ3sk2CnK" version="21.7.5" type="github">
  <diagram id="C5RBs43oDa-KdzZeNtuy" name="Page-1">
    <mxGraphModel dx="951" dy="1665" grid="1" gridSize="10" guides="1" tooltips="1" connect="1" arrows="1" fold="1" page="1" pageScale="1" pageWidth="827" pageHeight="1169" math="0" shadow="0">
      <root>
        <mxCell id="WIyWlLk6GJQsqaUBKTNV-0" />
        <mxCell id="Arb35l3sJSgDQHAwR2kY-2" value="未命名图层" parent="WIyWlLk6GJQsqaUBKTNV-0" />
        <mxCell id="Arb35l3sJSgDQHAwR2kY-3" value="" style="rounded=0;html=1;jettySize=auto;orthogonalLoop=1;fontSize=11;endArrow=block;endFill=0;endSize=8;strokeWidth=1;shadow=0;labelBackgroundColor=none;edgeStyle=orthogonalEdgeStyle;fontColor=default;" edge="1" parent="Arb35l3sJSgDQHAwR2kY-2" source="Arb35l3sJSgDQHAwR2kY-5">
          <mxGeometry relative="1" as="geometry">
            <mxPoint x="220" y="169.99999999999977" as="targetPoint" />
          </mxGeometry>
        </mxCell>
        <mxCell id="Arb35l3sJSgDQHAwR2kY-5" value="水印植入" style="rounded=1;whiteSpace=wrap;html=1;fontSize=12;glass=0;strokeWidth=1;shadow=0;arcSize=39;labelBackgroundColor=none;" vertex="1" parent="Arb35l3sJSgDQHAwR2kY-2">
          <mxGeometry x="160" y="80" width="120" height="40" as="geometry" />
        </mxCell>
        <mxCell id="Arb35l3sJSgDQHAwR2kY-35" value="" style="edgeStyle=orthogonalEdgeStyle;rounded=0;orthogonalLoop=1;jettySize=auto;html=1;labelBackgroundColor=none;fontColor=default;" edge="1" parent="Arb35l3sJSgDQHAwR2kY-2" source="Arb35l3sJSgDQHAwR2kY-34" target="Arb35l3sJSgDQHAwR2kY-5">
          <mxGeometry relative="1" as="geometry" />
        </mxCell>
        <mxCell id="Arb35l3sJSgDQHAwR2kY-34" value="开始" style="ellipse;whiteSpace=wrap;html=1;labelBackgroundColor=none;" vertex="1" parent="Arb35l3sJSgDQHAwR2kY-2">
          <mxGeometry x="170" y="-10" width="100" height="50" as="geometry" />
        </mxCell>
        <mxCell id="Arb35l3sJSgDQHAwR2kY-38" value="" style="edgeStyle=orthogonalEdgeStyle;rounded=0;orthogonalLoop=1;jettySize=auto;html=1;labelBackgroundColor=none;fontColor=default;" edge="1" parent="Arb35l3sJSgDQHAwR2kY-2" source="Arb35l3sJSgDQHAwR2kY-36" target="Arb35l3sJSgDQHAwR2kY-37">
          <mxGeometry relative="1" as="geometry" />
        </mxCell>
        <mxCell id="Arb35l3sJSgDQHAwR2kY-36" value="输入prompt" style="rounded=0;whiteSpace=wrap;html=1;labelBackgroundColor=none;" vertex="1" parent="Arb35l3sJSgDQHAwR2kY-2">
          <mxGeometry x="165" y="160" width="110" height="50" as="geometry" />
        </mxCell>
        <mxCell id="Arb35l3sJSgDQHAwR2kY-40" value="" style="edgeStyle=orthogonalEdgeStyle;rounded=0;orthogonalLoop=1;jettySize=auto;html=1;labelBackgroundColor=none;fontColor=default;" edge="1" parent="Arb35l3sJSgDQHAwR2kY-2" source="Arb35l3sJSgDQHAwR2kY-37" target="Arb35l3sJSgDQHAwR2kY-39">
          <mxGeometry relative="1" as="geometry" />
        </mxCell>
        <mxCell id="Arb35l3sJSgDQHAwR2kY-37" value="生成绿色词表G和红色词表R&amp;nbsp;" style="whiteSpace=wrap;html=1;rounded=0;labelBackgroundColor=none;" vertex="1" parent="Arb35l3sJSgDQHAwR2kY-2">
          <mxGeometry x="162.5" y="270" width="115" height="50" as="geometry" />
        </mxCell>
        <mxCell id="Arb35l3sJSgDQHAwR2kY-42" value="" style="edgeStyle=orthogonalEdgeStyle;rounded=0;orthogonalLoop=1;jettySize=auto;html=1;labelBackgroundColor=none;fontColor=default;" edge="1" parent="Arb35l3sJSgDQHAwR2kY-2" source="Arb35l3sJSgDQHAwR2kY-39" target="Arb35l3sJSgDQHAwR2kY-41">
          <mxGeometry relative="1" as="geometry" />
        </mxCell>
        <mxCell id="Arb35l3sJSgDQHAwR2kY-39" value="在G中的词对应的词向量上加偏置δ" style="whiteSpace=wrap;html=1;rounded=0;labelBackgroundColor=none;" vertex="1" parent="Arb35l3sJSgDQHAwR2kY-2">
          <mxGeometry x="165" y="370" width="110" height="60" as="geometry" />
        </mxCell>
        <mxCell id="Arb35l3sJSgDQHAwR2kY-44" value="" style="edgeStyle=orthogonalEdgeStyle;rounded=0;orthogonalLoop=1;jettySize=auto;html=1;labelBackgroundColor=none;fontColor=default;" edge="1" parent="Arb35l3sJSgDQHAwR2kY-2" source="Arb35l3sJSgDQHAwR2kY-41" target="Arb35l3sJSgDQHAwR2kY-43">
          <mxGeometry relative="1" as="geometry" />
        </mxCell>
        <mxCell id="Arb35l3sJSgDQHAwR2kY-41" value="&amp;nbsp;将修改后的词向量转换为采样概率" style="whiteSpace=wrap;html=1;rounded=0;labelBackgroundColor=none;" vertex="1" parent="Arb35l3sJSgDQHAwR2kY-2">
          <mxGeometry x="160" y="480" width="120" height="60" as="geometry" />
        </mxCell>
        <mxCell id="Arb35l3sJSgDQHAwR2kY-46" value="" style="edgeStyle=orthogonalEdgeStyle;rounded=0;orthogonalLoop=1;jettySize=auto;html=1;labelBackgroundColor=none;fontColor=default;" edge="1" parent="Arb35l3sJSgDQHAwR2kY-2" source="Arb35l3sJSgDQHAwR2kY-43" target="Arb35l3sJSgDQHAwR2kY-45">
          <mxGeometry relative="1" as="geometry" />
        </mxCell>
        <mxCell id="Arb35l3sJSgDQHAwR2kY-43" value="根据采样概率生成下一词" style="whiteSpace=wrap;html=1;rounded=0;labelBackgroundColor=none;" vertex="1" parent="Arb35l3sJSgDQHAwR2kY-2">
          <mxGeometry x="160" y="585" width="120" height="60" as="geometry" />
        </mxCell>
        <mxCell id="Arb35l3sJSgDQHAwR2kY-51" value="" style="edgeStyle=orthogonalEdgeStyle;rounded=0;orthogonalLoop=1;jettySize=auto;html=1;entryX=0;entryY=0.5;entryDx=0;entryDy=0;" edge="1" parent="Arb35l3sJSgDQHAwR2kY-2" source="Arb35l3sJSgDQHAwR2kY-45" target="Arb35l3sJSgDQHAwR2kY-36">
          <mxGeometry relative="1" as="geometry">
            <mxPoint x="360" y="185" as="targetPoint" />
            <Array as="points">
              <mxPoint x="110" y="720" />
              <mxPoint x="110" y="185" />
            </Array>
          </mxGeometry>
        </mxCell>
        <mxCell id="Arb35l3sJSgDQHAwR2kY-54" value="" style="edgeStyle=orthogonalEdgeStyle;rounded=0;orthogonalLoop=1;jettySize=auto;html=1;" edge="1" parent="Arb35l3sJSgDQHAwR2kY-2" source="Arb35l3sJSgDQHAwR2kY-45">
          <mxGeometry relative="1" as="geometry">
            <mxPoint x="220" y="790" as="targetPoint" />
          </mxGeometry>
        </mxCell>
        <mxCell id="Arb35l3sJSgDQHAwR2kY-45" value="&amp;nbsp;将生成的词连接到prompt" style="whiteSpace=wrap;html=1;rounded=0;labelBackgroundColor=none;" vertex="1" parent="Arb35l3sJSgDQHAwR2kY-2">
          <mxGeometry x="160" y="690" width="120" height="60" as="geometry" />
        </mxCell>
        <mxCell id="Arb35l3sJSgDQHAwR2kY-55" value="生成完整文本" style="rounded=1;whiteSpace=wrap;html=1;arcSize=27;" vertex="1" parent="Arb35l3sJSgDQHAwR2kY-2">
          <mxGeometry x="162.5" y="790" width="120" height="60" as="geometry" />
        </mxCell>
        <mxCell id="Arb35l3sJSgDQHAwR2kY-56" value="" style="rounded=0;html=1;jettySize=auto;orthogonalLoop=1;fontSize=11;endArrow=block;endFill=0;endSize=8;strokeWidth=1;shadow=0;labelBackgroundColor=none;edgeStyle=orthogonalEdgeStyle;fontColor=default;" edge="1" parent="Arb35l3sJSgDQHAwR2kY-2" source="Arb35l3sJSgDQHAwR2kY-57">
          <mxGeometry relative="1" as="geometry">
            <mxPoint x="550" y="159.99999999999977" as="targetPoint" />
          </mxGeometry>
        </mxCell>
        <mxCell id="Arb35l3sJSgDQHAwR2kY-57" value="水印检测" style="rounded=1;whiteSpace=wrap;html=1;fontSize=12;glass=0;strokeWidth=1;shadow=0;arcSize=39;labelBackgroundColor=none;" vertex="1" parent="Arb35l3sJSgDQHAwR2kY-2">
          <mxGeometry x="490" y="70" width="120" height="40" as="geometry" />
        </mxCell>
        <mxCell id="Arb35l3sJSgDQHAwR2kY-58" value="" style="edgeStyle=orthogonalEdgeStyle;rounded=0;orthogonalLoop=1;jettySize=auto;html=1;labelBackgroundColor=none;fontColor=default;" edge="1" parent="Arb35l3sJSgDQHAwR2kY-2" source="Arb35l3sJSgDQHAwR2kY-59" target="Arb35l3sJSgDQHAwR2kY-57">
          <mxGeometry relative="1" as="geometry" />
        </mxCell>
        <mxCell id="Arb35l3sJSgDQHAwR2kY-59" value="开始" style="ellipse;whiteSpace=wrap;html=1;labelBackgroundColor=none;" vertex="1" parent="Arb35l3sJSgDQHAwR2kY-2">
          <mxGeometry x="500" y="-20" width="100" height="50" as="geometry" />
        </mxCell>
        <mxCell id="Arb35l3sJSgDQHAwR2kY-60" value="" style="edgeStyle=orthogonalEdgeStyle;rounded=0;orthogonalLoop=1;jettySize=auto;html=1;labelBackgroundColor=none;fontColor=default;" edge="1" parent="Arb35l3sJSgDQHAwR2kY-2" source="Arb35l3sJSgDQHAwR2kY-61" target="Arb35l3sJSgDQHAwR2kY-63">
          <mxGeometry relative="1" as="geometry" />
        </mxCell>
        <mxCell id="Arb35l3sJSgDQHAwR2kY-61" value="输入生成的文本" style="rounded=0;whiteSpace=wrap;html=1;labelBackgroundColor=none;" vertex="1" parent="Arb35l3sJSgDQHAwR2kY-2">
          <mxGeometry x="495" y="150" width="110" height="50" as="geometry" />
        </mxCell>
        <mxCell id="Arb35l3sJSgDQHAwR2kY-62" value="" style="edgeStyle=orthogonalEdgeStyle;rounded=0;orthogonalLoop=1;jettySize=auto;html=1;labelBackgroundColor=none;fontColor=default;" edge="1" parent="Arb35l3sJSgDQHAwR2kY-2" source="Arb35l3sJSgDQHAwR2kY-63" target="Arb35l3sJSgDQHAwR2kY-65">
          <mxGeometry relative="1" as="geometry" />
        </mxCell>
        <mxCell id="Arb35l3sJSgDQHAwR2kY-63" value="生成绿色词表G和红色词表R&amp;nbsp;" style="whiteSpace=wrap;html=1;rounded=0;labelBackgroundColor=none;" vertex="1" parent="Arb35l3sJSgDQHAwR2kY-2">
          <mxGeometry x="492.5" y="260" width="115" height="50" as="geometry" />
        </mxCell>
        <mxCell id="Arb35l3sJSgDQHAwR2kY-64" value="" style="edgeStyle=orthogonalEdgeStyle;rounded=0;orthogonalLoop=1;jettySize=auto;html=1;labelBackgroundColor=none;fontColor=default;" edge="1" parent="Arb35l3sJSgDQHAwR2kY-2" source="Arb35l3sJSgDQHAwR2kY-65" target="Arb35l3sJSgDQHAwR2kY-67">
          <mxGeometry relative="1" as="geometry" />
        </mxCell>
        <mxCell id="Arb35l3sJSgDQHAwR2kY-65" value="在G中的词对应的词向量上加偏置δ" style="whiteSpace=wrap;html=1;rounded=0;labelBackgroundColor=none;" vertex="1" parent="Arb35l3sJSgDQHAwR2kY-2">
          <mxGeometry x="495" y="360" width="110" height="60" as="geometry" />
        </mxCell>
        <mxCell id="Arb35l3sJSgDQHAwR2kY-66" value="" style="edgeStyle=orthogonalEdgeStyle;rounded=0;orthogonalLoop=1;jettySize=auto;html=1;labelBackgroundColor=none;fontColor=default;" edge="1" parent="Arb35l3sJSgDQHAwR2kY-2" source="Arb35l3sJSgDQHAwR2kY-67" target="Arb35l3sJSgDQHAwR2kY-69">
          <mxGeometry relative="1" as="geometry" />
        </mxCell>
        <mxCell id="Arb35l3sJSgDQHAwR2kY-67" value="&amp;nbsp;将修改后的词向量转换为采样概率" style="whiteSpace=wrap;html=1;rounded=0;labelBackgroundColor=none;" vertex="1" parent="Arb35l3sJSgDQHAwR2kY-2">
          <mxGeometry x="490" y="470" width="120" height="60" as="geometry" />
        </mxCell>
        <mxCell id="Arb35l3sJSgDQHAwR2kY-68" value="" style="edgeStyle=orthogonalEdgeStyle;rounded=0;orthogonalLoop=1;jettySize=auto;html=1;labelBackgroundColor=none;fontColor=default;" edge="1" parent="Arb35l3sJSgDQHAwR2kY-2" source="Arb35l3sJSgDQHAwR2kY-69" target="Arb35l3sJSgDQHAwR2kY-72">
          <mxGeometry relative="1" as="geometry" />
        </mxCell>
        <mxCell id="Arb35l3sJSgDQHAwR2kY-69" value="根据采样概率生成下一词" style="whiteSpace=wrap;html=1;rounded=0;labelBackgroundColor=none;" vertex="1" parent="Arb35l3sJSgDQHAwR2kY-2">
          <mxGeometry x="490" y="575" width="120" height="60" as="geometry" />
        </mxCell>
        <mxCell id="Arb35l3sJSgDQHAwR2kY-70" value="" style="edgeStyle=orthogonalEdgeStyle;rounded=0;orthogonalLoop=1;jettySize=auto;html=1;" edge="1" parent="Arb35l3sJSgDQHAwR2kY-2" source="Arb35l3sJSgDQHAwR2kY-72">
          <mxGeometry relative="1" as="geometry">
            <mxPoint x="660" y="175" as="targetPoint" />
          </mxGeometry>
        </mxCell>
        <mxCell id="Arb35l3sJSgDQHAwR2kY-71" value="" style="edgeStyle=orthogonalEdgeStyle;rounded=0;orthogonalLoop=1;jettySize=auto;html=1;" edge="1" parent="Arb35l3sJSgDQHAwR2kY-2" source="Arb35l3sJSgDQHAwR2kY-72">
          <mxGeometry relative="1" as="geometry">
            <mxPoint x="550" y="780" as="targetPoint" />
          </mxGeometry>
        </mxCell>
        <mxCell id="Arb35l3sJSgDQHAwR2kY-72" value="&amp;nbsp;将生成的词连接到prompt" style="whiteSpace=wrap;html=1;rounded=0;labelBackgroundColor=none;" vertex="1" parent="Arb35l3sJSgDQHAwR2kY-2">
          <mxGeometry x="490" y="680" width="120" height="60" as="geometry" />
        </mxCell>
        <mxCell id="Arb35l3sJSgDQHAwR2kY-73" value="" style="edgeStyle=orthogonalEdgeStyle;rounded=0;orthogonalLoop=1;jettySize=auto;html=1;" edge="1" parent="Arb35l3sJSgDQHAwR2kY-2" target="Arb35l3sJSgDQHAwR2kY-61">
          <mxGeometry relative="1" as="geometry">
            <mxPoint x="660" y="175" as="sourcePoint" />
          </mxGeometry>
        </mxCell>
        <mxCell id="Arb35l3sJSgDQHAwR2kY-74" value="生成完整文本" style="rounded=1;whiteSpace=wrap;html=1;arcSize=27;" vertex="1" parent="Arb35l3sJSgDQHAwR2kY-2">
          <mxGeometry x="492.5" y="780" width="120" height="60" as="geometry" />
        </mxCell>
      </root>
    </mxGraphModel>
  </diagram>
</mxfile>
